<svg width="14" height="14" viewBox="0 0 14 14" fill="none" xmlns="http://www.w3.org/2000/svg">
<path fill-rule="evenodd" clip-rule="evenodd" d="M0.307991 12.2049C-0.102664 12.6155 -0.102664 13.2814 0.307991 13.692C0.718645 14.1027 1.38445 14.1027 1.7951 13.692L7 8.48711L12.2049 13.692C12.6156 14.1027 13.2814 14.1027 13.692 13.692C14.1027 13.2814 14.1027 12.6156 13.692 12.2049L8.48711 6.99999L13.692 1.7951C14.1026 1.38445 14.1026 0.718646 13.692 0.307991C13.2813 -0.102664 12.6155 -0.102663 12.2049 0.307991L7 5.51288L1.79512 0.307993C1.38446 -0.102662 0.71866 -0.102662 0.308006 0.307993C-0.102649 0.718648 -0.102649 1.38445 0.308006 1.79511L5.51289 6.99999L0.307991 12.2049Z" fill="white"/>
</svg>
