<svg width="17" height="16" viewBox="0 0 17 16" fill="none" xmlns="http://www.w3.org/2000/svg">
<path d="M14.084 8.00016V15.2918H2.41732V8.00016M8.25065 15.2918V4.35433M8.25065 4.35433H4.9694C4.48593 4.35433 4.02227 4.16227 3.6804 3.82041C3.33854 3.47855 3.14648 3.01488 3.14648 2.53141C3.14648 2.04795 3.33854 1.58428 3.6804 1.24242C4.02227 0.900553 4.48593 0.708496 4.9694 0.708496C7.52148 0.708496 8.25065 4.35433 8.25065 4.35433ZM8.25065 4.35433H11.5319C12.0154 4.35433 12.479 4.16227 12.8209 3.82041C13.1628 3.47855 13.3548 3.01488 13.3548 2.53141C13.3548 2.04795 13.1628 1.58428 12.8209 1.24242C12.479 0.900553 12.0154 0.708496 11.5319 0.708496C8.97982 0.708496 8.25065 4.35433 8.25065 4.35433ZM0.958984 4.35433H15.5423V8.00016H0.958984V4.35433Z" stroke="#141414" stroke-width="1.3125" stroke-linecap="round" stroke-linejoin="round"/>
</svg>
